<svg width="108.8" height="110.71" viewBox="0 0 108.8 110.71" xmlns="http://www.w3.org/2000/svg" xmlns:xlink="http://www.w3.org/1999/xlink" overflow="hidden"><defs></defs><g id="_x31__2_"><g id="background_1_"><linearGradient x1="0" y1="54.3974" x2="108.797" y2="54.3974" gradientUnits="userSpaceOnUse" id="color_3_"><stop offset="0.4847" stop-color="#FEFCEB"/><stop offset="0.4871" stop-color="#FCFAE8"/><stop offset="0.4889" stop-color="#F7F2DF"/><stop offset="0.4904" stop-color="#EDE5CF"/><stop offset="0.4908" stop-color="#EAE1CA"/></linearGradient><path d="M108.8 100.84C108.8 106.29 104.38 110.71 98.94 110.71L9.87 110.71C4.42 110.71 0 106.29 0 100.84L0 11.78C0 6.33 4.42 1.92 9.87 1.92L98.94 1.92C104.39 1.92 108.8 6.34 108.8 11.78L108.8 100.84Z" id="shadow_2_" fill="#B0A998"/><path d="M108.8 98.93C108.8 104.38 104.38 108.8 98.94 108.8L9.87 108.8C4.42 108.8 0 104.38 0 98.93L0 9.86C0 4.42 4.42 0 9.87 0L98.94 0C104.39 0 108.8 4.42 108.8 9.86L108.8 98.93Z" id="color_2_" fill="url(#color_3_)"/></g><g id="dot_1_"><linearGradient x1="42.5352" y1="55.354" x2="64.5205" y2="55.354" gradientUnits="userSpaceOnUse" id="SVGID_1_"><stop offset="0.4847" stop-color="#716D6E"/><stop offset="0.4868" stop-color="#6E6A6B"/><stop offset="0.4883" stop-color="#656162"/><stop offset="0.4896" stop-color="#565153"/><stop offset="0.4908" stop-color="#423C3E"/></linearGradient><path d="M64.52 55.35C64.52 53.05 63.81 50.91 62.6 49.14 61.83 48.02 60.86 47.04 59.73 46.28 57.97 45.07 55.83 44.36 53.53 44.36 51.35 44.36 49.32 45 47.61 46.1 46.27 46.96 45.14 48.09 44.28 49.43 43.18 51.14 42.54 53.17 42.54 55.35 42.54 57.57 43.2 59.63 44.33 61.35 45.17 62.63 46.25 63.72 47.53 64.55 49.26 65.68 51.32 66.34 53.53 66.34 59.6 66.35 64.52 61.43 64.52 55.35Z" fill="url(#SVGID_1_)"/></g></g></svg>