<svg width="108.8" height="110.71" viewBox="0 0 108.8 110.71" xmlns="http://www.w3.org/2000/svg" xmlns:xlink="http://www.w3.org/1999/xlink" overflow="hidden"><defs></defs><g id="_x33__1_"><g id="background_1_"><linearGradient x1="0" y1="54.3974" x2="108.797" y2="54.3974" gradientUnits="userSpaceOnUse" id="color_2_"><stop offset="0.4847" stop-color="#FEFCEB"/><stop offset="0.4871" stop-color="#FCFAE8"/><stop offset="0.4889" stop-color="#F7F2DF"/><stop offset="0.4904" stop-color="#EDE5CF"/><stop offset="0.4908" stop-color="#EAE1CA"/></linearGradient><path d="M108.8 100.84C108.8 106.29 104.38 110.7 98.94 110.7L9.87 110.7C4.42 110.7 0 106.28 0 100.84L0 11.78C0 6.33 4.42 1.92 9.87 1.92L98.94 1.92C104.39 1.92 108.8 6.34 108.8 11.78L108.8 100.84Z" id="shadow_1_" fill="#B0A998"/><path d="M108.8 98.93C108.8 104.38 104.38 108.8 98.94 108.8L9.87 108.8C4.42 108.8 0 104.38 0 98.93L0 9.86C0 4.42 4.42 0 9.87 0L98.94 0C104.39 0 108.8 4.42 108.8 9.86L108.8 98.93Z" id="color_1_" fill="url(#color_2_)"/></g><g id="dots_2_"><g><linearGradient x1="42.5352" y1="55.353" x2="64.5215" y2="55.353" gradientUnits="userSpaceOnUse" id="SVGID_1_"><stop offset="0.4847" stop-color="#716D6E"/><stop offset="0.4868" stop-color="#6E6A6B"/><stop offset="0.4883" stop-color="#656162"/><stop offset="0.4896" stop-color="#565153"/><stop offset="0.4908" stop-color="#423C3E"/></linearGradient><path d="M82.52 96.21C88.59 96.21 93.51 91.29 93.51 85.22 93.51 79.15 88.59 74.22 82.52 74.22 76.45 74.22 71.53 79.14 71.53 85.22 71.53 91.29 76.45 96.21 82.52 96.21Z" fill="#423C3E"/><path d="M23.66 36.48C29.73 36.48 34.65 31.56 34.65 25.49 34.65 19.42 29.73 14.5 23.66 14.5 17.59 14.5 12.67 19.42 12.67 25.49 12.67 31.56 17.6 36.48 23.66 36.48Z" fill="#554F51"/><path d="M53.53 66.34C59.6 66.34 64.52 61.42 64.52 55.35 64.52 49.28 59.6 44.36 53.53 44.36 47.46 44.36 42.54 49.28 42.54 55.35 42.54 61.42 47.46 66.34 53.53 66.34Z" fill="url(#SVGID_1_)"/></g></g></g></svg>