<svg width="108.8" height="110.71" viewBox="0 0 108.8 110.71" xmlns="http://www.w3.org/2000/svg" xmlns:xlink="http://www.w3.org/1999/xlink" overflow="hidden"><defs></defs><g id="_x32__2_"><g id="background_1_"><linearGradient x1="0" y1="54.3974" x2="108.797" y2="54.3974" gradientUnits="userSpaceOnUse" id="color_2_"><stop offset="0.4847" stop-color="#FEFCEB"/><stop offset="0.4871" stop-color="#FCFAE8"/><stop offset="0.4889" stop-color="#F7F2DF"/><stop offset="0.4904" stop-color="#EDE5CF"/><stop offset="0.4908" stop-color="#EAE1CA"/></linearGradient><path d="M108.8 100.84C108.8 106.29 104.38 110.7 98.94 110.7L9.86 110.7C4.41 110.7 0 106.28 0 100.84L0 11.78C0 6.33 4.42 1.92 9.86 1.92L98.93 1.92C104.38 1.92 108.79 6.34 108.79 11.78L108.79 100.84Z" id="shadow_1_" fill="#B0A998"/><path d="M108.8 98.93C108.8 104.38 104.38 108.8 98.94 108.8L9.86 108.8C4.41 108.8 0 104.38 0 98.93L0 9.86C0 4.42 4.42 0 9.86 0L98.93 0C104.38 0 108.79 4.42 108.79 9.86L108.79 98.93Z" id="color_1_" fill="url(#color_2_)"/></g><g id="dots_1_"><path d="M94.43 85.26C94.43 83.01 93.75 80.91 92.58 79.16 91.78 77.95 90.74 76.92 89.53 76.11 87.79 74.94 85.69 74.26 83.44 74.26 77.37 74.26 72.45 79.18 72.45 85.25 72.45 87.88 73.37 90.29 74.91 92.18 75.39 92.77 75.93 93.31 76.52 93.79 78.41 95.33 80.82 96.25 83.45 96.25 89.51 96.26 94.43 91.34 94.43 85.26Z" fill="#423C3E"/><path d="M36.35 25.45C36.35 23.2 35.67 21.1 34.5 19.36 33.69 18.15 32.66 17.11 31.45 16.31 29.71 15.15 27.61 14.47 25.36 14.47 22.76 14.47 20.37 15.38 18.49 16.89 17.87 17.39 17.3 17.96 16.8 18.58 15.29 20.46 14.38 22.85 14.38 25.46 14.38 28.09 15.3 30.49 16.84 32.38 17.32 32.97 17.86 33.51 18.45 33.99 20.34 35.53 22.75 36.45 25.37 36.45 31.43 36.44 36.35 31.52 36.35 25.45Z" fill="#554F51"/></g></g></svg>