<svg width="108.8" height="110.71" viewBox="0 0 108.8 110.71" xmlns="http://www.w3.org/2000/svg" xmlns:xlink="http://www.w3.org/1999/xlink" overflow="hidden"><defs></defs><g id="_x36__2_"><g id="background_1_"><linearGradient x1="0" y1="54.3975" x2="108.797" y2="54.3975" gradientUnits="userSpaceOnUse" id="color_2_"><stop offset="0.4847" stop-color="#FEFCEB"/><stop offset="0.4871" stop-color="#FCFAE8"/><stop offset="0.4889" stop-color="#F7F2DF"/><stop offset="0.4904" stop-color="#EDE5CF"/><stop offset="0.4908" stop-color="#EAE1CA"/></linearGradient><path d="M108.8 100.85C108.8 106.3 104.38 110.72 98.94 110.72L9.87 110.72C4.42 110.72 0 106.3 0 100.85L0 11.78C0 6.33 4.42 1.92 9.87 1.92L98.94 1.92C104.39 1.92 108.8 6.34 108.8 11.78L108.8 100.85Z" id="shadow_1_" fill="#B0A998"/><path d="M108.8 98.93C108.8 104.38 104.38 108.8 98.94 108.8L9.87 108.8C4.42 108.8 0 104.38 0 98.93L0 9.86C0 4.42 4.42 0 9.87 0L98.94 0C104.39 0 108.8 4.42 108.8 9.86L108.8 98.93Z" id="color_1_" fill="url(#color_2_)"/></g><g id="dots_1_"><g><path d="M27.14 36.48C33.21 36.48 38.14 31.56 38.14 25.49 38.14 19.42 33.22 14.5 27.14 14.5 21.07 14.5 16.15 19.42 16.15 25.49 16.15 31.56 21.08 36.48 27.14 36.48Z" fill="#554F51"/><path d="M27.15 96.21C33.22 96.21 38.14 91.29 38.14 85.22 38.14 79.15 33.22 74.23 27.15 74.23 21.08 74.23 16.16 79.15 16.16 85.22 16.15 91.29 21.08 96.21 27.15 96.21Z" fill="#554F51"/><path d="M27.15 66.35C33.22 66.35 38.14 61.43 38.14 55.36 38.14 49.29 33.22 44.37 27.15 44.37 21.08 44.37 16.16 49.29 16.16 55.36 16.15 61.42 21.08 66.35 27.15 66.35Z" fill="#554F51"/></g><g><circle cx="81.65" cy="85.22" r="10.99" fill="#423C3E"/><circle cx="81.65" cy="25.49" r="10.99" fill="#423C3E"/><circle cx="81.65" cy="55.35" r="10.99" fill="#423C3E"/></g></g></g></svg>