<svg width="108.8" height="110.71" viewBox="0 0 108.8 110.71" xmlns="http://www.w3.org/2000/svg" xmlns:xlink="http://www.w3.org/1999/xlink" overflow="hidden"><defs></defs><g id="_x35__2_"><g id="background_2_"><linearGradient x1="0" y1="54.3975" x2="108.797" y2="54.3975" gradientUnits="userSpaceOnUse" id="color_3_"><stop offset="0.4847" stop-color="#FEFCEB"/><stop offset="0.4871" stop-color="#FCFAE8"/><stop offset="0.4889" stop-color="#F7F2DF"/><stop offset="0.4904" stop-color="#EDE5CF"/><stop offset="0.4908" stop-color="#EAE1CA"/></linearGradient><path d="M108.8 100.85C108.8 106.3 104.38 110.72 98.94 110.72L9.86 110.72C4.41 110.72 0 106.3 0 100.85L0 11.78C0 6.33 4.42 1.92 9.86 1.92L98.93 1.92C104.38 1.92 108.79 6.34 108.79 11.78L108.79 100.85Z" id="shadow_1_" fill="#B0A998"/><path d="M108.8 98.93C108.8 104.38 104.38 108.8 98.94 108.8L9.86 108.8C4.41 108.8 0 104.38 0 98.93L0 9.87C0 4.42 4.42 0 9.86 0L98.93 0C104.38 0 108.79 4.42 108.79 9.87L108.79 98.93Z" id="color_1_" fill="url(#color_3_)"/></g><g id="dots_1_"><g><linearGradient x1="42.5361" y1="55.3555" x2="64.5214" y2="55.3555" gradientUnits="userSpaceOnUse" id="SVGID_1_"><stop offset="0.4847" stop-color="#716D6E"/><stop offset="0.4868" stop-color="#6E6A6B"/><stop offset="0.4883" stop-color="#656162"/><stop offset="0.4896" stop-color="#565153"/><stop offset="0.4908" stop-color="#423C3E"/></linearGradient><path d="M81.65 96.21C87.72 96.21 92.64 91.29 92.64 85.22 92.64 79.15 87.72 74.23 81.65 74.23 75.58 74.23 70.66 79.15 70.66 85.22 70.66 91.29 75.58 96.21 81.65 96.21Z" fill="#423C3E"/><path d="M27.14 36.48C33.21 36.48 38.14 31.56 38.14 25.49 38.14 19.42 33.22 14.5 27.14 14.5 21.07 14.5 16.15 19.42 16.15 25.49 16.15 31.56 21.08 36.48 27.14 36.48Z" fill="#554F51"/><path d="M53.53 66.35C59.6 66.35 64.52 61.43 64.52 55.36 64.52 49.29 59.6 44.37 53.53 44.37 47.46 44.37 42.54 49.29 42.54 55.36 42.54 61.43 47.46 66.35 53.53 66.35Z" fill="url(#SVGID_1_)"/><path d="M27.15 96.21C33.22 96.21 38.14 91.29 38.14 85.22 38.14 79.15 33.22 74.23 27.15 74.23 21.08 74.23 16.16 79.15 16.16 85.22 16.15 91.29 21.08 96.21 27.15 96.21Z" fill="#554F51"/><path d="M81.65 36.48C87.72 36.48 92.64 31.56 92.64 25.49 92.64 19.42 87.72 14.5 81.65 14.5 75.58 14.5 70.66 19.42 70.66 25.49 70.66 31.56 75.58 36.48 81.65 36.48Z" fill="#423C3E"/></g></g></g></svg>